<?xml version="1.0" encoding="UTF-8" standalone="no"?>
<!-- Created with Inkscape (http://www.inkscape.org/) -->

<svg
   sodipodi:docname="SplitStack.svg"
   inkscape:version="1.1.2 (0a00cf5339, 2022-02-04)"
   id="svg8"
   version="1.1"
   viewBox="0 0 45.720005 128.50002"
   height="128.5mm"
   width="45.720001mm"
   xmlns:inkscape="http://www.inkscape.org/namespaces/inkscape"
   xmlns:sodipodi="http://sodipodi.sourceforge.net/DTD/sodipodi-0.dtd"
   xmlns="http://www.w3.org/2000/svg"
   xmlns:svg="http://www.w3.org/2000/svg"
   xmlns:rdf="http://www.w3.org/1999/02/22-rdf-syntax-ns#"
   xmlns:cc="http://creativecommons.org/ns#"
   xmlns:dc="http://purl.org/dc/elements/1.1/">
  <defs
     id="defs2">
    <marker
       style="overflow:visible"
       id="marker1392"
       refX="0"
       refY="0"
       orient="auto"
       inkscape:stockid="Arrow2Mend"
       inkscape:isstock="true">
      <path
         transform="scale(-0.6)"
         d="M 8.7185878,4.0337352 -2.2072895,0.01601326 8.7185884,-4.0017078 c -1.7454984,2.3720609 -1.7354408,5.6174519 -6e-7,8.035443 z"
         style="fill:context-stroke;fill-rule:evenodd;stroke:context-stroke;stroke-width:0.625;stroke-linejoin:round"
         id="path1142" />
    </marker>
    <marker
       style="overflow:visible"
       id="Arrow1Mend"
       refX="0"
       refY="0"
       orient="auto"
       inkscape:stockid="Arrow1Mend"
       inkscape:isstock="true">
      <path
         transform="matrix(-0.4,0,0,-0.4,-4,0)"
         style="fill:context-stroke;fill-rule:evenodd;stroke:context-stroke;stroke-width:1pt"
         d="M 0,0 5,-5 -12.5,0 5,5 Z"
         id="path1124" />
    </marker>
    <marker
       style="overflow:visible"
       id="Arrow1Send"
       refX="0"
       refY="0"
       orient="auto"
       inkscape:stockid="Arrow1Send"
       inkscape:isstock="true">
      <path
         transform="matrix(-0.2,0,0,-0.2,-1.2,0)"
         style="fill:context-stroke;fill-rule:evenodd;stroke:context-stroke;stroke-width:1pt"
         d="M 0,0 5,-5 -12.5,0 5,5 Z"
         id="path1130" />
    </marker>
    <inkscape:path-effect
       effect="fillet_chamfer"
       id="path-effect1113"
       is_visible="true"
       lpeversion="1"
       satellites_param="F,0,0,1,0,0,0,1 @ F,0,0,1,0,2.6458333,0,1 @ F,0,0,1,0,2.6458333,0,1"
       unit="px"
       method="auto"
       mode="F"
       radius="10"
       chamfer_steps="1"
       flexible="false"
       use_knot_distance="true"
       apply_no_radius="true"
       apply_with_radius="true"
       only_selected="false"
       hide_knots="false" />
    <marker
       style="overflow:visible"
       id="Arrow2Mend"
       refX="0"
       refY="0"
       orient="auto"
       inkscape:stockid="Arrow2Mend"
       inkscape:isstock="true">
      <path
         transform="scale(-0.6)"
         d="M 8.7185878,4.0337352 -2.2072895,0.01601326 8.7185884,-4.0017078 c -1.7454984,2.3720609 -1.7354408,5.6174519 -6e-7,8.035443 z"
         style="fill:context-stroke;fill-rule:evenodd;stroke:context-stroke;stroke-width:0.625;stroke-linejoin:round"
         id="path59252" />
    </marker>
    <marker
       style="overflow:visible"
       id="Arrow1Lend"
       refX="0"
       refY="0"
       orient="auto"
       inkscape:stockid="Arrow1Lend"
       inkscape:isstock="true">
      <path
         transform="matrix(-0.8,0,0,-0.8,-10,0)"
         style="fill:context-stroke;fill-rule:evenodd;stroke:context-stroke;stroke-width:1pt"
         d="M 0,0 5,-5 -12.5,0 5,5 Z"
         id="path59228" />
    </marker>
    <marker
       style="overflow:visible"
       id="Arrow1Lstart"
       refX="0"
       refY="0"
       orient="auto"
       inkscape:stockid="Arrow1Lstart"
       inkscape:isstock="true">
      <path
         transform="matrix(0.8,0,0,0.8,10,0)"
         style="fill:context-stroke;fill-rule:evenodd;stroke:context-stroke;stroke-width:1pt"
         d="M 0,0 5,-5 -12.5,0 5,5 Z"
         id="path59225" />
    </marker>
    <linearGradient
       id="SVGID_1_"
       gradientUnits="userSpaceOnUse"
       x1="14.17379"
       y1="1.9999999e-05"
       x2="14.17379"
       y2="28.347719">
      <stop
         offset="0"
         style="stop-color:#B0ACAE"
         id="stop17727" />
      <stop
         offset="1"
         style="stop-color:#000000"
         id="stop17729" />
    </linearGradient>
    <linearGradient
       id="SVGID_2_"
       gradientUnits="userSpaceOnUse"
       x1="5.12815"
       y1="-4117.3818"
       x2="27.655621"
       y2="-4117.3818"
       gradientTransform="rotate(90,-2050.495,-2052.713)">
      <stop
         offset="0"
         style="stop-color:#232223"
         id="stop17738" />
      <stop
         offset="1"
         style="stop-color:#1F1E1F"
         id="stop17740" />
    </linearGradient>
  </defs>
  <sodipodi:namedview
     id="base"
     pagecolor="#ffffff"
     bordercolor="#666666"
     borderopacity="1.0"
     inkscape:pageopacity="0.0"
     inkscape:pageshadow="2"
     inkscape:zoom="2"
     inkscape:cx="-45"
     inkscape:cy="253.75"
     inkscape:document-units="mm"
     inkscape:current-layer="layer1"
     showgrid="false"
     units="mm"
     inkscape:snap-bbox="true"
     inkscape:snap-page="true"
     inkscape:bbox-nodes="false"
     inkscape:snap-bbox-edge-midpoints="false"
     inkscape:window-width="2560"
     inkscape:window-height="1379"
     inkscape:window-x="0"
     inkscape:window-y="0"
     inkscape:window-maximized="1"
     inkscape:snap-bbox-midpoints="true"
     inkscape:snap-nodes="false"
     inkscape:pagecheckerboard="0"
     width="30.48mm"
     showguides="true"
     inkscape:guide-bbox="true"
     inkscape:lockguides="true"
     inkscape:snap-text-baseline="true" />
  <metadata
     id="metadata5">
    <rdf:RDF>
      <cc:Work
         rdf:about="">
        <dc:format>image/svg+xml</dc:format>
        <dc:type
           rdf:resource="http://purl.org/dc/dcmitype/StillImage" />
      </cc:Work>
    </rdf:RDF>
  </metadata>
  <g
     inkscape:label="Layer 1"
     inkscape:groupmode="layer"
     id="layer1"
     transform="translate(0,-168.49998)"
     style="display:inline">
    <rect
       style="display:inline;opacity:1;vector-effect:none;fill:#e6e6e6;fill-opacity:1;fill-rule:evenodd;stroke:none;stroke-width:0.795297;stroke-linecap:butt;stroke-linejoin:miter;stroke-miterlimit:4;stroke-dasharray:none;stroke-dashoffset:0;stroke-opacity:1;paint-order:normal"
       id="rect420"
       width="45.719997"
       height="128.5"
       x="-1.7733063e-06"
       y="168.49998"
       sodipodi:insensitive="true" />
    <path
       id="rect59210"
       style="display:inline;fill:#1a1a1a;stroke-width:0.932096;stroke-linecap:round;stroke-linejoin:round"
       d="m 17.992634,232.54448 h 24.974723 c 1.017214,0 1.836127,0.81891 1.836127,1.83613 v 52.68876 c 0,1.01721 -0.818913,1.83612 -1.836127,1.83612 H 17.992634 c -1.017214,0 -1.836127,-0.81891 -1.836127,-1.83612 v -52.68876 c 0,-1.01722 0.818913,-1.83613 1.836127,-1.83613 z" />
    <text
       xml:space="preserve"
       style="font-style:normal;font-weight:normal;font-size:10.5833px;line-height:1.25;font-family:sans-serif;fill:#000000;fill-opacity:1;stroke:none;stroke-width:0.264583"
       x="11.954887"
       y="222.33797"
       id="text65289"><tspan
         sodipodi:role="line"
         id="tspan65287"
         style="stroke-width:0.264583"
         x="11.954887"
         y="222.33797" /></text>
    <text
       xml:space="preserve"
       style="font-style:normal;font-weight:normal;font-size:10.5833px;line-height:1.25;font-family:sans-serif;fill:#000000;fill-opacity:1;stroke:none;stroke-width:0.264583"
       x="-3.6755412"
       y="276.99722"
       id="text80285"><tspan
         sodipodi:role="line"
         id="tspan80283"
         style="stroke-width:0.264583"
         x="-3.6755412"
         y="276.99722" /></text>
    <text
       xml:space="preserve"
       style="font-style:normal;font-weight:normal;font-size:10.5833px;line-height:1.25;font-family:sans-serif;fill:#000000;fill-opacity:1;stroke:none;stroke-width:0.264583"
       x="-18.465246"
       y="239.39552"
       id="text24631"><tspan
         sodipodi:role="line"
         id="tspan24629"
         style="stroke-width:0.264583"
         x="-18.465246"
         y="239.39552" /></text>
    <text
       xml:space="preserve"
       style="font-style:normal;font-weight:normal;font-size:10.5833px;line-height:1.25;font-family:sans-serif;fill:#000000;fill-opacity:1;stroke:none;stroke-width:0.264583"
       x="-8.2293472"
       y="291.03128"
       id="text36741"><tspan
         sodipodi:role="line"
         id="tspan36739"
         style="stroke-width:0.264583"
         x="-8.2293472"
         y="291.03128" /></text>
    <g
       aria-label="MUS-X"
       id="text38608"
       style="font-style:italic;font-weight:bold;font-size:2.82222px;line-height:1.25;-inkscape-font-specification:'sans-serif Bold Italic';fill:#1a1a1a;fill-opacity:1;stroke-width:0.264583"
       transform="translate(7.4277629,-1.6760294)">
      <path
         d="m 10.684896,293.10906 h 0.675238 l 0.248047,1.10106 0.691775,-1.10106 h 0.67386 l -0.412033,2.05741 h -0.501606 l 0.300412,-1.50481 -0.695908,1.10932 h -0.336242 l -0.25218,-1.10932 -0.300412,1.50481 h -0.502984 z"
         id="path53546"
         style="fill:#1a1a1a;fill-opacity:1" />
      <path
         d="m 13.493336,293.10906 h 0.530544 l -0.246668,1.23335 q -0.05099,0.25493 0.0096,0.36518 0.06201,0.10886 0.250803,0.10886 0.190169,0 0.294899,-0.10886 0.106109,-0.11025 0.157097,-0.36518 l 0.246668,-1.23335 h 0.530545 l -0.246669,1.23335 q -0.08819,0.43683 -0.350021,0.65043 -0.261827,0.2136 -0.711068,0.2136 -0.447862,0 -0.62425,-0.2136 -0.176389,-0.2136 -0.08819,-0.65043 z"
         id="path53548"
         style="fill:#1a1a1a;fill-opacity:1" />
      <path
         d="m 17.203012,293.17383 -0.08682,0.43546 q -0.15434,-0.0758 -0.308681,-0.11438 -0.152962,-0.0386 -0.296278,-0.0386 -0.190169,0 -0.292143,0.0524 -0.100597,0.0524 -0.122646,0.16261 -0.01654,0.0827 0.03583,0.12954 0.05237,0.0455 0.206706,0.0786 l 0.216352,0.0455 q 0.329351,0.0689 0.445106,0.20946 0.117133,0.14056 0.06615,0.39963 -0.0689,0.34038 -0.304546,0.50712 -0.234266,0.16537 -0.649055,0.16537 -0.195682,0 -0.385851,-0.0372 -0.188791,-0.0372 -0.370692,-0.11024 l 0.08957,-0.44787 q 0.17501,0.10474 0.348643,0.15848 0.173633,0.0524 0.344509,0.0524 0.173633,0 0.276986,-0.0579 0.104731,-0.0579 0.125401,-0.16537 0.01929,-0.0965 -0.03307,-0.14883 -0.05099,-0.0524 -0.230132,-0.0937 l -0.197059,-0.0455 q -0.2949,-0.0661 -0.409277,-0.21084 -0.112999,-0.14469 -0.06477,-0.38998 0.06201,-0.3073 0.293522,-0.47267 0.23151,-0.16536 0.60358,-0.16536 0.169499,0 0.343132,0.0262 0.17501,0.0248 0.355533,0.0758 z"
         id="path53550"
         style="fill:#1a1a1a;fill-opacity:1" />
      <path
         d="m 17.502046,294.15362 h 0.865407 l -0.07993,0.401 h -0.865408 z"
         id="path53552"
         style="fill:#1a1a1a;fill-opacity:1" />
      <path
         d="m 19.702771,294.11641 0.504361,1.05006 H 19.65454 l -0.340376,-0.7028 -0.61736,0.7028 h -0.555349 l 0.923285,-1.05006 -0.483691,-1.00735 h 0.553971 l 0.316948,0.66284 0.58291,-0.66284 h 0.556727 z"
         id="path53554"
         style="fill:#1a1a1a;fill-opacity:1" />
    </g>
    <g
       aria-label="Split/Stack"
       id="text7857"
       style="font-weight:bold;font-size:4.9389px;line-height:1.25;-inkscape-font-specification:'sans-serif Bold';fill:#1a1a1a;stroke-width:0.264583">
      <path
         d="m 10.541686,174.40641 v 0.76205 q -0.296623,-0.13263 -0.5787773,-0.20016 -0.2821539,-0.0675 -0.5329574,-0.0675 -0.332797,0 -0.4919608,0.0916 -0.1591638,0.0916 -0.1591638,0.28456 0,0.1447 0.1061092,0.22669 0.1085208,0.0796 0.3906747,0.13746 l 0.3954979,0.0796 q 0.6004815,0.12058 0.8536965,0.36656 0.253215,0.24598 0.253215,0.69936 0,0.59566 -0.354501,0.88746 -0.35209,0.28939 -1.0779728,0.28939 -0.3424432,0 -0.6872981,-0.0651 -0.3448548,-0.0651 -0.6897096,-0.19292 v -0.78376 q 0.3448548,0.18328 0.6655939,0.27733 0.3231507,0.0916 0.6221857,0.0916 0.3038581,0 0.4654334,-0.10129 0.1615753,-0.10129 0.1615753,-0.28939 0,-0.16881 -0.1109323,-0.26045 -0.1085207,-0.0916 -0.4364946,-0.16399 l -0.3593242,-0.0796 Q 8.4363835,176.2802 8.18558,176.02698 q -0.248392,-0.25321 -0.248392,-0.68247 0,-0.53778 0.3472664,-0.82717 0.3472664,-0.28939 0.9983909,-0.28939 0.2966234,0 0.6101278,0.0458 0.3135049,0.0434 0.6487129,0.13264 z"
         id="path66689" />
      <path
         d="m 12.417889,177.50286 v 1.41801 h -0.863343 v -3.72829 h 0.863343 v 0.3955 q 0.178457,-0.23634 0.395498,-0.34727 0.217042,-0.11334 0.499196,-0.11334 0.499195,0 0.819934,0.39791 0.320739,0.39549 0.320739,1.02009 0,0.6246 -0.320739,1.02251 -0.320739,0.3955 -0.819934,0.3955 -0.282154,0 -0.499196,-0.11094 -0.217041,-0.11334 -0.395498,-0.34968 z m 0.573954,-1.74839 q -0.27733,0 -0.426848,0.20499 -0.147106,0.20257 -0.147106,0.58601 0,0.38344 0.147106,0.58842 0.149518,0.20258 0.426848,0.20258 0.277331,0 0.422026,-0.20258 0.147106,-0.20257 0.147106,-0.58842 0,-0.38585 -0.147106,-0.58842 -0.144695,-0.20258 -0.422026,-0.20258 z"
         id="path66691" />
      <path
         d="m 15.089911,174.14113 h 0.863343 v 3.75241 h -0.863343 z"
         id="path66693" />
      <path
         d="m 16.782835,175.19258 h 0.863343 v 2.70096 h -0.863343 z m 0,-1.05145 h 0.863343 v 0.70418 h -0.863343 z"
         id="path66695" />
      <path
         d="m 19.418683,174.4257 v 0.76688 h 0.88987 v 0.61736 h -0.88987 v 1.1455 q 0,0.1881 0.07476,0.25562 0.07476,0.0651 0.296623,0.0651 h 0.44373 v 0.61736 h -0.740353 q -0.511253,0 -0.725883,-0.21222 -0.212219,-0.21463 -0.212219,-0.72588 v -1.1455 h -0.42926 v -0.61736 h 0.42926 v -0.76688 z"
         id="path66697" />
      <path
         d="m 21.690384,174.29306 h 0.535369 l -1.270898,4.05868 h -0.532958 z"
         id="path66699" />
      <path
         d="m 25.184752,174.40641 v 0.76205 q -0.296623,-0.13263 -0.578777,-0.20016 -0.282154,-0.0675 -0.532957,-0.0675 -0.332797,0 -0.491961,0.0916 -0.159164,0.0916 -0.159164,0.28456 0,0.1447 0.106109,0.22669 0.108521,0.0796 0.390675,0.13746 l 0.395498,0.0796 q 0.600481,0.12058 0.853696,0.36656 0.253216,0.24598 0.253216,0.69936 0,0.59566 -0.354502,0.88746 -0.352089,0.28939 -1.077972,0.28939 -0.342444,0 -0.687298,-0.0651 -0.344855,-0.0651 -0.68971,-0.19292 v -0.78376 q 0.344855,0.18328 0.665594,0.27733 0.32315,0.0916 0.622185,0.0916 0.303859,0 0.465434,-0.10129 0.161575,-0.10129 0.161575,-0.28939 0,-0.16881 -0.110932,-0.26045 -0.108521,-0.0916 -0.436495,-0.16399 l -0.359324,-0.0796 q -0.540192,-0.11575 -0.790996,-0.36897 -0.248392,-0.25321 -0.248392,-0.68247 0,-0.53778 0.347267,-0.82717 0.347266,-0.28939 0.998391,-0.28939 0.296623,0 0.610128,0.0458 0.313504,0.0434 0.648712,0.13264 z"
         id="path66701" />
      <path
         d="m 27.140538,174.4257 v 0.76688 h 0.88987 v 0.61736 h -0.88987 v 1.1455 q 0,0.1881 0.07476,0.25562 0.07476,0.0651 0.296623,0.0651 h 0.44373 v 0.61736 h -0.740353 q -0.511253,0 -0.725883,-0.21222 -0.212219,-0.21463 -0.212219,-0.72588 v -1.1455 h -0.429259 v -0.61736 h 0.429259 v -0.76688 z"
         id="path66703" />
      <path
         d="m 29.769152,176.67811 q -0.270096,0 -0.407555,0.0916 -0.135048,0.0916 -0.135048,0.27009 0,0.16399 0.10852,0.25804 0.110933,0.0916 0.30627,0.0916 0.243569,0 0.409967,-0.17363 0.166399,-0.17605 0.166399,-0.43891 v -0.0989 z m 1.31913,-0.32557 v 1.541 h -0.870577 v -0.40032 q -0.173633,0.24598 -0.390675,0.35932 -0.217041,0.11094 -0.528134,0.11094 -0.419614,0 -0.682475,-0.24357 -0.26045,-0.24598 -0.26045,-0.63666 0,-0.47508 0.325562,-0.69694 0.327974,-0.22187 1.02733,-0.22187 h 0.508842 v -0.0675 q 0,-0.20499 -0.161576,-0.29904 -0.161575,-0.0965 -0.504018,-0.0965 -0.277331,0 -0.516077,0.0555 -0.238745,0.0555 -0.443729,0.16639 v -0.65835 q 0.277331,-0.0675 0.557073,-0.10129 0.279743,-0.0362 0.559485,-0.0362 0.730706,0 1.053857,0.28938 0.325562,0.28698 0.325562,0.93569 z"
         id="path66705" />
      <path
         d="m 34.073808,175.27698 v 0.70418 q -0.176045,-0.12058 -0.354501,-0.17845 -0.176045,-0.0579 -0.366559,-0.0579 -0.361736,0 -0.564308,0.21222 -0.20016,0.2098 -0.20016,0.58842 0,0.37862 0.20016,0.59084 0.202572,0.2098 0.564308,0.2098 0.202572,0 0.38344,-0.0603 0.18328,-0.0603 0.33762,-0.17845 v 0.70659 q -0.202572,0.0748 -0.412379,0.11093 -0.207395,0.0386 -0.417202,0.0386 -0.730706,0 -1.143085,-0.3738 -0.412379,-0.3762 -0.412379,-1.04421 0,-0.668 0.412379,-1.0418 0.412379,-0.3762 1.143085,-0.3762 0.212219,0 0.417202,0.0386 0.207396,0.0362 0.412379,0.11093 z"
         id="path66707" />
      <path
         d="m 34.818984,174.14113 h 0.863343 v 2.0426 l 0.993567,-0.99115 h 1.003215 l -1.31913,1.23955 1.422827,1.46141 h -1.046622 l -1.053857,-1.1262 v 1.1262 h -0.863343 z"
         id="path66709" />
    </g>
    <g
       aria-label="Switch A↔B"
       transform="translate(0,168.49998)"
       id="text32865"
       style="font-size:4.23333px;line-height:1.25;-inkscape-font-specification:sans-serif;display:inline;fill:#1a1a1a;stroke-width:0.264583">
      <path
         d="m 12.791369,56.408986 v 0.40721 q -0.237711,-0.113688 -0.448551,-0.169499 -0.21084,-0.05581 -0.40721,-0.05581 -0.341064,0 -0.527099,0.132291 -0.183968,0.132292 -0.183968,0.376204 0,0.204639 0.121956,0.310059 0.124023,0.103353 0.467155,0.167431 l 0.25218,0.05168 q 0.467155,0.08888 0.68833,0.314192 0.223242,0.223242 0.223242,0.599446 0,0.448551 -0.30179,0.680061 -0.299723,0.231511 -0.880566,0.231511 -0.219108,0 -0.467154,-0.04961 -0.24598,-0.04961 -0.510563,-0.146761 v -0.429947 q 0.254248,0.142627 0.49816,0.214974 0.243913,0.07235 0.479557,0.07235 0.357601,0 0.551904,-0.14056 0.194303,-0.14056 0.194303,-0.401009 0,-0.227376 -0.14056,-0.355534 -0.138492,-0.128157 -0.456819,-0.192236 l -0.254248,-0.04961 q -0.467154,-0.09302 -0.675927,-0.291455 -0.208772,-0.198437 -0.208772,-0.551904 0,-0.409277 0.28732,-0.644921 0.289388,-0.235644 0.795817,-0.235644 0.21704,0 0.44235,0.03927 0.225309,0.03927 0.460953,0.117822 z"
         id="path66712" />
      <path
         d="m 13.390815,57.078712 h 0.380338 l 0.475423,1.806606 0.473356,-1.806606 h 0.448551 l 0.475423,1.806606 0.473355,-1.806606 h 0.380338 l -0.605647,2.315102 h -0.448551 l -0.49816,-1.897557 -0.500228,1.897557 h -0.448551 z"
         id="path66714" />
      <path
         d="m 17.074308,57.078712 h 0.380338 v 2.315102 h -0.380338 z m 0,-0.901236 h 0.380338 V 56.6591 h -0.380338 z"
         id="path66716" />
      <path
         d="m 18.626666,56.421388 v 0.657324 h 0.783414 v 0.295589 h -0.783414 v 1.25677 q 0,0.283186 0.07648,0.363801 0.07855,0.08062 0.31626,0.08062 h 0.390673 v 0.318326 h -0.390673 q -0.440283,0 -0.607714,-0.163297 -0.167432,-0.165365 -0.167432,-0.599446 v -1.25677 h -0.279052 v -0.295589 h 0.279052 v -0.657324 z"
         id="path66718" />
      <path
         d="m 21.576355,57.167595 v 0.355534 q -0.16123,-0.08888 -0.324527,-0.132292 -0.161231,-0.04547 -0.326595,-0.04547 -0.370003,0 -0.574642,0.235644 -0.204638,0.233578 -0.204638,0.657324 0,0.423746 0.204638,0.659391 0.204639,0.233577 0.574642,0.233577 0.165364,0 0.326595,-0.04341 0.163297,-0.04548 0.324527,-0.134359 v 0.3514 q -0.159163,0.07441 -0.330729,0.111621 -0.169498,0.03721 -0.361734,0.03721 -0.522965,0 -0.830957,-0.328662 -0.307991,-0.328662 -0.307991,-0.886767 0,-0.566373 0.310058,-0.890901 0.312126,-0.324528 0.853694,-0.324528 0.1757,0 0.343132,0.03721 0.167431,0.03514 0.324527,0.107487 z"
         id="path66720" />
      <path
         d="m 24.162241,57.996485 v 1.397329 h -0.380338 v -1.384927 q 0,-0.328662 -0.128157,-0.491959 -0.128158,-0.163298 -0.384473,-0.163298 -0.307991,0 -0.485758,0.196371 -0.177766,0.19637 -0.177766,0.535367 v 1.308446 h -0.382406 v -3.216338 h 0.382406 v 1.260904 q 0.136425,-0.208773 0.320393,-0.312126 0.186035,-0.103353 0.427881,-0.103353 0.398941,0 0.60358,0.248047 0.204638,0.24598 0.204638,0.725537 z"
         id="path66722" />
      <path
         d="m 27.314501,56.719044 -0.566373,1.535822 h 1.134813 z M 27.078857,56.3077 h 0.473356 l 1.176154,3.086114 h -0.434081 l -0.28112,-0.791682 h -1.391128 l -0.28112,0.791682 h -0.440283 z"
         id="path66724" />
      <path
         d="m 28.970212,58.159782 v -0.186035 l 0.812353,-0.812353 0.248047,0.248047 -0.481624,0.481624 h 1.976105 l -0.481624,-0.481624 0.248047,-0.248047 0.812353,0.812353 v 0.186035 l -0.812353,0.812353 -0.248047,-0.248047 0.481624,-0.481624 h -1.976105 l 0.481624,0.481624 -0.248047,0.248047 z"
         id="path66726" />
      <path
         d="m 33.143598,57.920003 v 1.13068 h 0.669726 q 0.33693,0 0.49816,-0.138493 0.163298,-0.14056 0.163298,-0.42788 0,-0.289388 -0.163298,-0.425814 -0.16123,-0.138493 -0.49816,-0.138493 z m 0,-1.269172 v 0.930175 h 0.61805 q 0.305924,0 0.454752,-0.113688 0.150895,-0.115755 0.150895,-0.351399 0,-0.233577 -0.150895,-0.349333 -0.148828,-0.115755 -0.454752,-0.115755 z M 32.726053,56.3077 h 1.0666 q 0.47749,0 0.735872,0.198437 0.258382,0.198438 0.258382,0.564307 0,0.283186 -0.132291,0.450618 -0.132292,0.167431 -0.388607,0.208772 0.307991,0.06615 0.47749,0.276986 0.171566,0.208772 0.171566,0.522965 0,0.413411 -0.28112,0.63872 -0.28112,0.225309 -0.799951,0.225309 h -1.107941 z"
         id="path66728" />
    </g>
    <g
       aria-label="V/Oct"
       transform="translate(0,168.49998)"
       id="text21469"
       style="font-size:4.23333px;line-height:1.25;-inkscape-font-specification:sans-serif;display:inline;fill:#1a1a1a;stroke-width:0.264583">
      <path
         d="M 3.0445703,86.728188 1.8663487,83.642074 h 0.4361487 l 0.9777173,2.598288 0.9797843,-2.598288 h 0.4340817 l -1.1761546,3.086114 z"
         id="path66731" />
      <path
         d="M 5.8040895,83.642074 H 6.155489 L 5.0806201,87.120928 H 4.7292206 Z"
         id="path66733" />
      <path
         d="m 7.8236028,83.92526 q -0.4547522,0 -0.7234694,0.338997 -0.2666502,0.338997 -0.2666502,0.923974 0,0.58291 0.2666502,0.921907 0.2687172,0.338997 0.7234694,0.338997 0.4547522,0 0.7193353,-0.338997 0.2666502,-0.338997 0.2666502,-0.921907 0,-0.584977 -0.2666502,-0.923974 Q 8.278355,83.92526 7.8236028,83.92526 Z m 0,-0.338997 q 0.6490554,0 1.0376619,0.436149 0.3886064,0.434082 0.3886064,1.165819 0,0.729671 -0.3886064,1.16582 -0.3886065,0.434081 -1.0376619,0.434081 -0.6511225,0 -1.041796,-0.434081 -0.3886064,-0.434082 -0.3886064,-1.16582 0,-0.731737 0.3886064,-1.165819 0.3906735,-0.436149 1.041796,-0.436149 z"
         id="path66735" />
      <path
         d="m 11.552571,84.501969 v 0.355533 q -0.161231,-0.08888 -0.324528,-0.132291 -0.16123,-0.04547 -0.326595,-0.04547 -0.370003,0 -0.574641,0.235644 -0.204639,0.233577 -0.204639,0.657324 0,0.423746 0.204639,0.65939 0.204638,0.233578 0.574641,0.233578 0.165365,0 0.326595,-0.04341 0.163297,-0.04547 0.324528,-0.134358 v 0.351399 q -0.159164,0.07441 -0.330729,0.111621 -0.169499,0.03721 -0.361735,0.03721 -0.522965,0 -0.830956,-0.328662 -0.3079915,-0.328661 -0.3079915,-0.886766 0,-0.566374 0.3100585,-0.890901 0.312125,-0.324528 0.853694,-0.324528 0.175699,0 0.343131,0.03721 0.167431,0.03514 0.324528,0.107487 z"
         id="path66737" />
      <path
         d="m 12.590233,83.755762 v 0.657323 h 0.783414 v 0.295589 h -0.783414 v 1.25677 q 0,0.283187 0.07648,0.363802 0.07855,0.08062 0.31626,0.08062 h 0.390673 v 0.318327 h -0.390673 q -0.440283,0 -0.607715,-0.163298 -0.167431,-0.165364 -0.167431,-0.599446 v -1.25677 h -0.279053 v -0.295589 h 0.279053 v -0.657323 z"
         id="path66739" />
    </g>
    <g
       aria-label="Gate"
       transform="translate(0,168.49998)"
       id="text26509"
       style="font-size:4.23333px;line-height:1.25;-inkscape-font-specification:sans-serif;display:inline;fill:#1a1a1a;stroke-width:0.264583">
      <path
         d="m 5.0640837,102.3504 v -0.82889 H 4.3819554 v -0.34313 h 1.0955394 v 1.32498 q -0.2418455,0.17156 -0.5333003,0.26045 -0.2914548,0.0868 -0.6221837,0.0868 -0.7234695,0 -1.1327465,-0.42167 -0.4072099,-0.42375 -0.4072099,-1.17823 0,-0.75654 0.4072099,-1.17822 0.409277,-0.423745 1.1327465,-0.423745 0.3017901,0 0.5725744,0.07441 0.2728513,0.07441 0.5022945,0.219108 v 0.444413 q -0.2315103,-0.19637 -0.4919593,-0.29558 -0.260449,-0.09922 -0.5477697,-0.09922 -0.5663732,0 -0.8516269,0.316263 -0.2831866,0.31626 -0.2831866,0.94257 0,0.62425 0.2831866,0.94051 0.2852537,0.31626 0.8516269,0.31626 0.221175,0 0.3948076,-0.0372 0.1736327,-0.0393 0.3121254,-0.11989 z"
         id="path66742" />
      <path
         d="m 7.2758332,101.62693 q -0.4609534,0 -0.6387202,0.10542 -0.1777667,0.10542 -0.1777667,0.35967 0,0.20257 0.1322915,0.32246 0.1343586,0.11782 0.3638018,0.11782 0.3162595,0 0.5064286,-0.22324 0.1922362,-0.22531 0.1922362,-0.59738 v -0.0847 z m 0.7586094,-0.1571 v 1.32085 H 7.6541044 v -0.3514 q -0.1302245,0.21084 -0.3245278,0.31213 -0.1943032,0.0992 -0.4754227,0.0992 -0.3555336,0 -0.5663733,-0.19843 -0.2087726,-0.20051 -0.2087726,-0.53537 0,-0.39067 0.260449,-0.58911 0.2625161,-0.19844 0.781347,-0.19844 h 0.5333004 v -0.0372 q 0,-0.26251 -0.1736327,-0.40514 -0.1715656,-0.14469 -0.483691,-0.14469 -0.1984373,0 -0.3865394,0.0475 -0.188102,0.0475 -0.3617347,0.14263 v -0.3514 q 0.2087726,-0.0806 0.4051429,-0.11989 0.1963703,-0.0413 0.3824053,-0.0413 0.5022945,0 0.7503411,0.26045 0.2480467,0.26045 0.2480467,0.78961 z"
         id="path66744" />
      <path
         d="m 9.1940606,99.818254 v 0.657326 h 0.7834141 v 0.29559 H 9.1940606 v 1.25677 q 0,0.28318 0.076481,0.3638 0.078548,0.0806 0.3162595,0.0806 h 0.3906735 v 0.31833 H 9.5868012 q -0.4402829,0 -0.6077144,-0.1633 -0.1674314,-0.16536 -0.1674314,-0.59944 v -1.25677 H 8.5326029 v -0.29559 h 0.2790525 v -0.657326 z"
         id="path66746" />
      <path
         d="m 12.457942,101.53804 v 0.18604 h -1.748729 q 0.0248,0.39274 0.235644,0.59945 0.212907,0.20463 0.591178,0.20463 0.219108,0 0.423746,-0.0537 0.206706,-0.0537 0.409277,-0.16123 v 0.35967 q -0.204638,0.0868 -0.419612,0.13229 -0.214974,0.0455 -0.436149,0.0455 -0.553971,0 -0.878498,-0.32246 -0.322461,-0.32246 -0.322461,-0.87229 0,-0.56844 0.305924,-0.90124 0.307991,-0.33486 0.828889,-0.33486 0.467155,0 0.737939,0.30179 0.272852,0.29972 0.272852,0.81648 z m -0.380339,-0.11162 q -0.0041,-0.31212 -0.175699,-0.49816 -0.169499,-0.18603 -0.450618,-0.18603 -0.318327,0 -0.510563,0.17983 -0.190169,0.17984 -0.219108,0.50643 z"
         id="path66748" />
    </g>
    <g
       aria-label="Retrig
"
       transform="translate(0,168.49998)"
       id="text29905"
       style="font-size:4.23333px;line-height:1.25;-inkscape-font-specification:sans-serif;display:inline;fill:#1a1a1a;stroke-width:0.264583">
      <path
         d="m 3.1737622,117.40623 q 0.1343587,0.0455 0.260449,0.19431 0.1281575,0.14882 0.2563149,0.40927 l 0.4237464,0.84336 H 3.6657215 L 3.2709139,118.06149 Q 3.1179517,117.75143 2.9732579,117.65015 2.830631,117.54886 2.5825844,117.54886 H 2.1278321 v 1.30431 H 1.7102869 v -3.08611 h 0.9425773 q 0.5291663,0 0.7896153,0.22117 0.260449,0.22118 0.260449,0.66766 0,0.29146 -0.1364257,0.48369 -0.1343586,0.19224 -0.3927406,0.26665 z m -1.0459301,-1.29604 v 1.09554 h 0.5250321 q 0.3017902,0 0.4547523,-0.13849 0.1550291,-0.14056 0.1550291,-0.41135 0,-0.27078 -0.1550291,-0.40721 -0.1529621,-0.13849 -0.4547523,-0.13849 z"
         id="path66751" />
      <path
         d="m 6.4252407,117.60054 v 0.18603 h -1.748729 q 0.024805,0.39274 0.2356443,0.59945 0.2129067,0.20464 0.5911779,0.20464 0.2191079,0 0.4237464,-0.0537 0.2067055,-0.0537 0.409277,-0.16123 v 0.35967 q -0.2046385,0.0868 -0.4196123,0.13229 -0.2149738,0.0455 -0.4361487,0.0455 -0.5539709,0 -0.8784986,-0.32246 -0.3224607,-0.32246 -0.3224607,-0.8723 0,-0.56844 0.3059242,-0.90124 0.3079913,-0.33486 0.8288893,-0.33486 0.4671546,0 0.7379388,0.30179 0.2728514,0.29972 0.2728514,0.81649 z m -0.3803383,-0.11162 q -0.00413,-0.31213 -0.1756997,-0.49816 -0.1694985,-0.18604 -0.4506181,-0.18604 -0.3183265,0 -0.5105627,0.17983 -0.1901691,0.17984 -0.2191079,0.50643 z"
         id="path66753" />
      <path
         d="m 7.4256956,115.88075 v 0.65732 h 0.7834141 v 0.29559 H 7.4256956 v 1.25677 q 0,0.28319 0.076481,0.3638 0.078548,0.0806 0.3162595,0.0806 h 0.3906735 v 0.31832 H 7.8184362 q -0.4402829,0 -0.6077144,-0.1633 -0.1674315,-0.16536 -0.1674315,-0.59944 v -1.25677 H 6.7642378 v -0.29559 h 0.2790525 v -0.65732 z"
         id="path66755" />
      <path
         d="m 10.050856,116.8936 q -0.064078,-0.0372 -0.1405594,-0.0537 -0.074414,-0.0186 -0.1653644,-0.0186 -0.3224607,0 -0.4960934,0.21084 -0.1715656,0.20877 -0.1715656,0.60151 v 1.21956 H 8.6948679 v -2.3151 h 0.3824053 v 0.35967 q 0.1198892,-0.21084 0.3121254,-0.31213 0.1922362,-0.10335 0.4671546,-0.10335 0.039274,0 0.086816,0.006 0.047542,0.004 0.1054195,0.0145 z"
         id="path66757" />
      <path
         d="m 10.449798,116.53807 h 0.380338 v 2.3151 h -0.380338 z m 0,-0.90124 h 0.380338 v 0.48163 h -0.380338 z"
         id="path66759" />
      <path
         d="m 13.149373,117.66875 q 0,-0.41341 -0.171566,-0.64079 -0.169498,-0.22737 -0.47749,-0.22737 -0.305924,0 -0.47749,0.22737 -0.169498,0.22738 -0.169498,0.64079 0,0.41134 0.169498,0.63872 0.171566,0.22738 0.47749,0.22738 0.307992,0 0.47749,-0.22738 0.171566,-0.22738 0.171566,-0.63872 z m 0.380338,0.8971 q 0,0.59118 -0.262516,0.8785 -0.262516,0.28939 -0.804085,0.28939 -0.200504,0 -0.378271,-0.031 -0.177767,-0.0289 -0.345198,-0.091 v -0.37 q 0.167431,0.0909 0.330729,0.13436 0.163297,0.0434 0.332796,0.0434 0.374137,0 0.560172,-0.19637 0.186035,-0.19431 0.186035,-0.58912 v -0.1881 q -0.117822,0.20464 -0.30179,0.30593 -0.183968,0.10128 -0.440283,0.10128 -0.425814,0 -0.686263,-0.32453 -0.260449,-0.32452 -0.260449,-0.85989 0,-0.53743 0.260449,-0.86196 0.260449,-0.32453 0.686263,-0.32453 0.256315,0 0.440283,0.10129 0.183968,0.10128 0.30179,0.30592 v -0.3514 h 0.380338 z"
         id="path66761" />
    </g>
    <g
       aria-label="Split A|B"
       transform="translate(0,168.49998)"
       id="text32767"
       style="font-size:4.23333px;line-height:1.25;-inkscape-font-specification:sans-serif;display:inline;fill:#1a1a1a;stroke-width:0.264583">
      <path
         d="m 16.156536,40.346185 v 0.407209 q -0.237712,-0.113688 -0.448551,-0.169498 -0.21084,-0.05581 -0.40721,-0.05581 -0.341065,0 -0.5271,0.132292 -0.183968,0.132292 -0.183968,0.376204 0,0.204639 0.121957,0.310058 0.124023,0.103353 0.467154,0.167432 l 0.252181,0.05168 q 0.467155,0.08888 0.68833,0.314193 0.223242,0.223242 0.223242,0.599446 0,0.448551 -0.301791,0.680061 -0.299723,0.23151 -0.880565,0.23151 -0.219108,0 -0.467155,-0.04961 -0.245979,-0.04961 -0.510562,-0.146761 V 42.76464 q 0.254247,0.142626 0.49816,0.214973 0.243912,0.07235 0.479557,0.07235 0.3576,0 0.551904,-0.14056 0.194303,-0.140559 0.194303,-0.401008 0,-0.227376 -0.14056,-0.355534 -0.138493,-0.128157 -0.456819,-0.192236 l -0.254248,-0.04961 q -0.467155,-0.09302 -0.675927,-0.291455 -0.208773,-0.198438 -0.208773,-0.551904 0,-0.409277 0.287321,-0.644921 0.289388,-0.235645 0.795816,-0.235645 0.217041,0 0.44235,0.03927 0.225309,0.03927 0.460954,0.117823 z"
         id="path66764" />
      <path
         d="m 17.345092,42.983747 v 1.227831 h -0.382405 v -3.195667 h 0.382405 v 0.351399 q 0.11989,-0.206706 0.301791,-0.305924 0.183968,-0.101286 0.438215,-0.101286 0.42168,0 0.684196,0.334863 0.264583,0.334863 0.264583,0.880566 0,0.545702 -0.264583,0.880565 -0.262516,0.334863 -0.684196,0.334863 -0.254247,0 -0.438215,-0.09922 -0.181901,-0.101286 -0.301791,-0.307992 z m 1.293977,-0.808218 q 0,-0.419613 -0.173632,-0.657324 -0.171566,-0.239778 -0.473356,-0.239778 -0.30179,0 -0.475423,0.239778 -0.171566,0.237711 -0.171566,0.657324 0,0.419612 0.171566,0.65939 0.173633,0.237712 0.475423,0.237712 0.30179,0 0.473356,-0.237712 0.173632,-0.239778 0.173632,-0.65939 z"
         id="path66766" />
      <path
         d="m 19.664329,40.114674 h 0.380338 v 3.216339 h -0.380338 z"
         id="path66768" />
      <path
         d="m 20.840483,41.015911 h 0.380339 v 2.315102 h -0.380339 z m 0,-0.901237 h 0.380339 v 0.481624 h -0.380339 z"
         id="path66770" />
      <path
         d="m 22.392842,40.358587 v 0.657324 h 0.783414 v 0.295588 h -0.783414 v 1.25677 q 0,0.283187 0.07648,0.363802 0.07855,0.08062 0.31626,0.08062 h 0.390673 v 0.318327 h -0.390673 q -0.440283,0 -0.607715,-0.163298 -0.167431,-0.165364 -0.167431,-0.599446 v -1.25677 h -0.279053 v -0.295588 h 0.279053 v -0.657324 z"
         id="path66772" />
      <path
         d="m 26.070134,40.656243 -0.566374,1.535822 h 1.134814 z m -0.235645,-0.411344 h 0.473356 L 27.484,43.331013 H 27.049918 L 26.768798,42.53933 H 25.37767 l -0.28112,0.791683 h -0.440282 z"
         id="path66774" />
      <path
         d="m 28.407974,40.096071 v 4.23333 h -0.351399 v -4.23333 z"
         id="path66776" />
      <path
         d="m 29.778431,41.857202 v 1.13068 h 0.669726 q 0.33693,0 0.498161,-0.138493 0.163297,-0.14056 0.163297,-0.427881 0,-0.289387 -0.163297,-0.425813 -0.161231,-0.138493 -0.498161,-0.138493 z m 0,-1.269172 v 0.930175 h 0.61805 q 0.305924,0 0.454752,-0.113688 0.150895,-0.115755 0.150895,-0.351399 0,-0.233578 -0.150895,-0.349333 -0.148828,-0.115755 -0.454752,-0.115755 z m -0.417545,-0.343131 h 1.066601 q 0.47749,0 0.735871,0.198437 0.258382,0.198437 0.258382,0.564306 0,0.283187 -0.132291,0.450618 -0.132292,0.167432 -0.388607,0.208773 0.307992,0.06615 0.47749,0.276985 0.171566,0.208773 0.171566,0.522966 0,0.413411 -0.28112,0.63872 -0.281119,0.225309 -0.79995,0.225309 h -1.107942 z"
         id="path66778" />
    </g>
    <g
       aria-label="Stack A+B"
       transform="translate(0,168.49998)"
       id="text32825"
       style="font-size:4.23333px;line-height:1.25;-inkscape-font-specification:sans-serif;display:inline;fill:#1a1a1a;stroke-width:0.264583">
      <path
         d="m 13.870943,24.283189 v 0.40721 Q 13.633231,24.57671 13.422392,24.5209 q -0.21084,-0.05581 -0.40721,-0.05581 -0.341065,0 -0.5271,0.132292 -0.183968,0.132292 -0.183968,0.376204 0,0.204639 0.121957,0.310058 0.124023,0.103353 0.467154,0.167432 l 0.252181,0.05168 q 0.467155,0.08888 0.68833,0.314193 0.223242,0.223242 0.223242,0.599446 0,0.448551 -0.301791,0.680061 -0.299723,0.23151 -0.880565,0.23151 -0.219108,0 -0.467155,-0.04961 -0.245979,-0.04961 -0.510562,-0.146761 v -0.429947 q 0.254247,0.142626 0.49816,0.214973 0.243912,0.07235 0.479557,0.07235 0.3576,0 0.551904,-0.140559 0.194303,-0.14056 0.194303,-0.401009 0,-0.227376 -0.14056,-0.355534 -0.138493,-0.128157 -0.456819,-0.192236 l -0.254248,-0.04961 q -0.467155,-0.09302 -0.675927,-0.291455 -0.208773,-0.198437 -0.208773,-0.551904 0,-0.409277 0.287321,-0.644921 0.289388,-0.235645 0.795816,-0.235645 0.217041,0 0.44235,0.03927 0.225309,0.03927 0.460954,0.117823 z"
         id="path66781" />
      <path
         d="m 15.067768,24.295591 v 0.657324 h 0.783414 v 0.295589 h -0.783414 v 1.256769 q 0,0.283187 0.07648,0.363802 0.07855,0.08062 0.316259,0.08062 h 0.390674 v 0.318327 h -0.390674 q -0.440283,0 -0.607714,-0.163298 -0.167432,-0.165364 -0.167432,-0.599446 V 25.248504 H 14.40631 v -0.295589 h 0.279052 v -0.657324 z"
         id="path66783" />
      <path
         d="m 17.40354,26.104265 q -0.460953,0 -0.63872,0.105419 -0.177767,0.10542 -0.177767,0.359668 0,0.202571 0.132292,0.322461 0.134359,0.117822 0.363802,0.117822 0.316259,0 0.506428,-0.223242 0.192237,-0.225309 0.192237,-0.597379 v -0.08475 z m 0.75861,-0.157097 v 1.320849 h -0.380338 v -0.3514 q -0.130225,0.21084 -0.324528,0.312126 -0.194303,0.09922 -0.475423,0.09922 -0.355533,0 -0.566373,-0.198437 -0.208773,-0.200504 -0.208773,-0.535367 0,-0.390674 0.260449,-0.589111 0.262516,-0.198437 0.781347,-0.198437 h 0.533301 v -0.03721 q 0,-0.262517 -0.173633,-0.405143 -0.171566,-0.144694 -0.483691,-0.144694 -0.198437,0 -0.386539,0.04754 -0.188103,0.04754 -0.361735,0.142627 v -0.3514 q 0.208772,-0.08061 0.405143,-0.119889 0.19637,-0.04134 0.382405,-0.04134 0.502294,0 0.750341,0.260449 0.248047,0.260449 0.248047,0.789615 z"
         id="path66785" />
      <path
         d="m 20.611611,25.041798 v 0.355534 q -0.161231,-0.08888 -0.324528,-0.132292 -0.16123,-0.04547 -0.326595,-0.04547 -0.370003,0 -0.574641,0.235644 -0.204639,0.233577 -0.204639,0.657324 0,0.423746 0.204639,0.65939 0.204638,0.233578 0.574641,0.233578 0.165365,0 0.326595,-0.04341 0.163297,-0.04548 0.324528,-0.134359 v 0.351399 q -0.159164,0.07441 -0.330729,0.111621 -0.169499,0.03721 -0.361735,0.03721 -0.522965,0 -0.830956,-0.328661 -0.307991,-0.328662 -0.307991,-0.886767 0,-0.566373 0.310058,-0.890901 0.312125,-0.324528 0.853694,-0.324528 0.1757,0 0.343131,0.03721 0.167432,0.03514 0.324528,0.107487 z"
         id="path66787" />
      <path
         d="m 21.258599,24.051678 h 0.382405 v 1.899624 l 1.134814,-0.998387 h 0.485758 l -1.227831,1.083137 1.279507,1.231965 h -0.496093 l -1.176155,-1.13068 v 1.13068 h -0.382405 z"
         id="path66789" />
      <path
         d="m 26.118246,24.593247 -0.566373,1.535822 h 1.134814 z m -0.235644,-0.411344 h 0.473356 l 1.176154,3.086114 h -0.434081 l -0.28112,-0.791682 h -1.391128 l -0.28112,0.791682 H 24.70438 Z"
         id="path66791" />
      <path
         d="m 29.514419,24.613917 v 1.15135 h 1.15135 v 0.3514 h -1.15135 v 1.15135 h -0.347265 v -1.15135 h -1.15135 v -0.3514 h 1.15135 v -1.15135 z"
         id="path66793" />
      <path
         d="m 31.947344,25.794206 v 1.13068 h 0.669726 q 0.33693,0 0.498161,-0.138493 0.163297,-0.14056 0.163297,-0.427881 0,-0.289387 -0.163297,-0.425813 Q 32.954,25.794206 32.61707,25.794206 Z m 0,-1.269172 v 0.930175 h 0.61805 q 0.305924,0 0.454752,-0.113688 0.150895,-0.115755 0.150895,-0.351399 0,-0.233578 -0.150895,-0.349333 -0.148828,-0.115755 -0.454752,-0.115755 z M 31.529799,24.181903 H 32.5964 q 0.477489,0 0.735871,0.198437 0.258382,0.198438 0.258382,0.564306 0,0.283187 -0.132291,0.450618 -0.132292,0.167432 -0.388607,0.208773 0.307992,0.06615 0.47749,0.276986 0.171566,0.208772 0.171566,0.522965 0,0.413411 -0.28112,0.63872 -0.281119,0.225309 -0.79995,0.225309 h -1.107942 z"
         id="path66795" />
    </g>
    <g
       aria-label="V/Oct"
       transform="translate(0,168.49998)"
       id="text59927"
       style="font-size:4.23333px;line-height:1.25;-inkscape-font-specification:sans-serif;display:inline;fill:#f9f9f9;stroke-width:0.264583">
      <path
         d="m 18.284569,86.728188 -1.178221,-3.086114 h 0.436148 l 0.977717,2.598288 0.979785,-2.598288 h 0.434081 l -1.176154,3.086114 z"
         id="path66798" />
      <path
         d="m 21.044088,83.642074 h 0.3514 l -1.074869,3.478854 h -0.3514 z"
         id="path66800" />
      <path
         d="m 23.063602,83.92526 q -0.454753,0 -0.72347,0.338997 -0.26665,0.338997 -0.26665,0.923974 0,0.58291 0.26665,0.921907 0.268717,0.338997 0.72347,0.338997 0.454752,0 0.719335,-0.338997 0.26665,-0.338997 0.26665,-0.921907 0,-0.584977 -0.26665,-0.923974 -0.264583,-0.338997 -0.719335,-0.338997 z m 0,-0.338997 q 0.649055,0 1.037662,0.436149 0.388606,0.434082 0.388606,1.165819 0,0.729671 -0.388606,1.16582 -0.388607,0.434081 -1.037662,0.434081 -0.651123,0 -1.041796,-0.434081 -0.388607,-0.434082 -0.388607,-1.16582 0,-0.731737 0.388607,-1.165819 0.390673,-0.436149 1.041796,-0.436149 z"
         id="path66802" />
      <path
         d="m 26.79257,84.501969 v 0.355533 q -0.161231,-0.08888 -0.324528,-0.132291 -0.161231,-0.04547 -0.326595,-0.04547 -0.370003,0 -0.574641,0.235644 -0.204639,0.233577 -0.204639,0.657324 0,0.423746 0.204639,0.65939 0.204638,0.233578 0.574641,0.233578 0.165364,0 0.326595,-0.04341 0.163297,-0.04547 0.324528,-0.134358 v 0.351399 q -0.159164,0.07441 -0.330729,0.111621 -0.169499,0.03721 -0.361735,0.03721 -0.522965,0 -0.830956,-0.328662 -0.307992,-0.328661 -0.307992,-0.886766 0,-0.566374 0.310059,-0.890901 0.312125,-0.324528 0.853694,-0.324528 0.175699,0 0.343131,0.03721 0.167431,0.03514 0.324528,0.107487 z"
         id="path66804" />
      <path
         d="m 27.830232,83.755762 v 0.657323 h 0.783414 v 0.295589 h -0.783414 v 1.25677 q 0,0.283187 0.07648,0.363802 0.07855,0.08062 0.31626,0.08062 h 0.390673 v 0.318327 h -0.390673 q -0.440283,0 -0.607715,-0.163298 -0.167431,-0.165364 -0.167431,-0.599446 v -1.25677 h -0.279053 v -0.295589 h 0.279053 v -0.657323 z"
         id="path66806" />
    </g>
    <g
       aria-label="Gate"
       transform="translate(0,168.49998)"
       id="text59931"
       style="font-size:4.23333px;line-height:1.25;-inkscape-font-specification:sans-serif;display:inline;fill:#f9f9f9;stroke-width:0.264583">
      <path
         d="m 20.304083,102.3504 v -0.82889 h -0.682129 v -0.34313 h 1.09554 v 1.32498 q -0.241846,0.17156 -0.533301,0.26045 -0.291455,0.0868 -0.622183,0.0868 -0.72347,0 -1.132747,-0.42167 -0.40721,-0.42375 -0.40721,-1.17823 0,-0.75654 0.40721,-1.17822 0.409277,-0.423745 1.132747,-0.423745 0.30179,0 0.572574,0.07441 0.272851,0.07441 0.502294,0.219108 v 0.444413 q -0.23151,-0.19637 -0.491959,-0.29558 -0.260449,-0.09922 -0.547769,-0.09922 -0.566374,0 -0.851627,0.316263 -0.283187,0.31626 -0.283187,0.94257 0,0.62425 0.283187,0.94051 0.285253,0.31626 0.851627,0.31626 0.221174,0 0.394807,-0.0372 0.173633,-0.0393 0.312126,-0.11989 z"
         id="path66809" />
      <path
         d="m 22.515832,101.62693 q -0.460953,0 -0.63872,0.10542 -0.177767,0.10542 -0.177767,0.35967 0,0.20257 0.132292,0.32246 0.134358,0.11782 0.363801,0.11782 0.31626,0 0.506429,-0.22324 0.192236,-0.22531 0.192236,-0.59738 v -0.0847 z m 0.758609,-0.1571 v 1.32085 h -0.380338 v -0.3514 q -0.130224,0.21084 -0.324528,0.31213 -0.194303,0.0992 -0.475422,0.0992 -0.355534,0 -0.566374,-0.19843 -0.208772,-0.20051 -0.208772,-0.53537 0,-0.39067 0.260449,-0.58911 0.262516,-0.19844 0.781347,-0.19844 h 0.5333 v -0.0372 q 0,-0.26251 -0.173632,-0.40514 -0.171566,-0.14469 -0.483691,-0.14469 -0.198438,0 -0.38654,0.0475 -0.188102,0.0475 -0.361735,0.14263 v -0.3514 q 0.208773,-0.0806 0.405143,-0.11989 0.196371,-0.0413 0.382406,-0.0413 0.502294,0 0.750341,0.26045 0.248046,0.26045 0.248046,0.78961 z"
         id="path66811" />
      <path
         d="m 24.434059,99.818254 v 0.657326 h 0.783414 v 0.29559 h -0.783414 v 1.25677 q 0,0.28318 0.07648,0.3638 0.07855,0.0806 0.316259,0.0806 h 0.390673 v 0.31833 H 24.8268 q -0.440283,0 -0.607714,-0.1633 -0.167432,-0.16536 -0.167432,-0.59944 v -1.25677 h -0.279052 v -0.29559 h 0.279052 v -0.657326 z"
         id="path66813" />
      <path
         d="m 27.69794,101.53804 v 0.18604 h -1.748729 q 0.02481,0.39274 0.235645,0.59945 0.212906,0.20463 0.591178,0.20463 0.219107,0 0.423746,-0.0537 0.206706,-0.0537 0.409277,-0.16123 v 0.35967 q -0.204639,0.0868 -0.419612,0.13229 -0.214974,0.0455 -0.436149,0.0455 -0.553971,0 -0.878499,-0.32246 -0.32246,-0.32246 -0.32246,-0.87229 0,-0.56844 0.305924,-0.90124 0.307991,-0.33486 0.828889,-0.33486 0.467155,0 0.737939,0.30179 0.272851,0.29972 0.272851,0.81648 z m -0.380338,-0.11162 q -0.0041,-0.31212 -0.1757,-0.49816 -0.169498,-0.18603 -0.450618,-0.18603 -0.318326,0 -0.510562,0.17983 -0.19017,0.17984 -0.219108,0.50643 z"
         id="path66815" />
    </g>
    <g
       aria-label="Retrig
"
       transform="translate(0,168.49998)"
       id="text59937"
       style="font-size:4.23333px;line-height:1.25;-inkscape-font-specification:sans-serif;display:inline;fill:#f9f9f9;stroke-width:0.264583">
      <path
         d="m 18.413761,117.40623 q 0.134358,0.0455 0.260449,0.19431 0.128157,0.14882 0.256315,0.40927 l 0.423746,0.84336 H 18.90572 l -0.394808,-0.79168 q -0.152962,-0.31006 -0.297656,-0.41134 -0.142627,-0.10129 -0.390673,-0.10129 h -0.454752 v 1.30431 h -0.417546 v -3.08611 h 0.942578 q 0.529166,0 0.789615,0.22117 0.260449,0.22118 0.260449,0.66766 0,0.29146 -0.136426,0.48369 -0.134358,0.19224 -0.39274,0.26665 z m -1.04593,-1.29604 v 1.09554 h 0.525032 q 0.30179,0 0.454752,-0.13849 0.155029,-0.14056 0.155029,-0.41135 0,-0.27078 -0.155029,-0.40721 -0.152962,-0.13849 -0.454752,-0.13849 z"
         id="path66818" />
      <path
         d="m 21.665239,117.60054 v 0.18603 H 19.91651 q 0.02481,0.39274 0.235644,0.59945 0.212907,0.20464 0.591178,0.20464 0.219108,0 0.423747,-0.0537 0.206705,-0.0537 0.409277,-0.16123 v 0.35967 q -0.204639,0.0868 -0.419613,0.13229 -0.214973,0.0455 -0.436148,0.0455 -0.553971,0 -0.878499,-0.32246 -0.322461,-0.32246 -0.322461,-0.8723 0,-0.56844 0.305925,-0.90124 0.307991,-0.33486 0.828889,-0.33486 0.467155,0 0.737939,0.30179 0.272851,0.29972 0.272851,0.81649 z m -0.380338,-0.11162 q -0.0041,-0.31213 -0.1757,-0.49816 -0.169498,-0.18604 -0.450618,-0.18604 -0.318326,0 -0.510563,0.17983 -0.190169,0.17984 -0.219108,0.50643 z"
         id="path66820" />
      <path
         d="m 22.665694,115.88075 v 0.65732 h 0.783414 v 0.29559 h -0.783414 v 1.25677 q 0,0.28319 0.07648,0.3638 0.07855,0.0806 0.31626,0.0806 h 0.390673 v 0.31832 h -0.390673 q -0.440283,0 -0.607715,-0.1633 -0.167431,-0.16536 -0.167431,-0.59944 v -1.25677 h -0.279053 v -0.29559 h 0.279053 v -0.65732 z"
         id="path66822" />
      <path
         d="m 25.290855,116.8936 q -0.06408,-0.0372 -0.14056,-0.0537 -0.07441,-0.0186 -0.165364,-0.0186 -0.322461,0 -0.496094,0.21084 -0.171565,0.20877 -0.171565,0.60151 v 1.21956 h -0.382406 v -2.3151 h 0.382406 v 0.35967 q 0.119889,-0.21084 0.312125,-0.31213 0.192236,-0.10335 0.467155,-0.10335 0.03927,0 0.08682,0.006 0.04754,0.004 0.10542,0.0145 z"
         id="path66824" />
      <path
         d="m 25.689796,116.53807 h 0.380338 v 2.3151 h -0.380338 z m 0,-0.90124 h 0.380338 v 0.48163 h -0.380338 z"
         id="path66826" />
      <path
         d="m 28.389371,117.66875 q 0,-0.41341 -0.171565,-0.64079 -0.169499,-0.22737 -0.47749,-0.22737 -0.305924,0 -0.47749,0.22737 -0.169499,0.22738 -0.169499,0.64079 0,0.41134 0.169499,0.63872 0.171566,0.22738 0.47749,0.22738 0.307991,0 0.47749,-0.22738 0.171565,-0.22738 0.171565,-0.63872 z m 0.380338,0.8971 q 0,0.59118 -0.262516,0.8785 -0.262516,0.28939 -0.804084,0.28939 -0.200505,0 -0.378271,-0.031 -0.177767,-0.0289 -0.345199,-0.091 v -0.37 q 0.167432,0.0909 0.330729,0.13436 0.163298,0.0434 0.332796,0.0434 0.374137,0 0.560172,-0.19637 0.186035,-0.19431 0.186035,-0.58912 v -0.1881 q -0.117822,0.20464 -0.30179,0.30593 -0.183968,0.10128 -0.440283,0.10128 -0.425813,0 -0.686262,-0.32453 -0.260449,-0.32452 -0.260449,-0.85989 0,-0.53743 0.260449,-0.86196 0.260449,-0.32453 0.686262,-0.32453 0.256315,0 0.440283,0.10129 0.183968,0.10128 0.30179,0.30592 v -0.3514 h 0.380338 z"
         id="path66828" />
    </g>
    <g
       aria-label="V/Oct"
       transform="translate(0,168.49998)"
       id="text60013"
       style="font-size:4.23333px;line-height:1.25;-inkscape-font-specification:sans-serif;display:inline;fill:#f9f9f9;stroke-width:0.264583">
      <path
         d="m 33.524569,86.728188 -1.178222,-3.086114 h 0.436149 l 0.977717,2.598288 0.979785,-2.598288 h 0.434081 l -1.176154,3.086114 z"
         id="path66831" />
      <path
         d="m 36.284088,83.642074 h 0.3514 l -1.074869,3.478854 h -0.3514 z"
         id="path66833" />
      <path
         d="m 38.303601,83.92526 q -0.454752,0 -0.723469,0.338997 -0.26665,0.338997 -0.26665,0.923974 0,0.58291 0.26665,0.921907 0.268717,0.338997 0.723469,0.338997 0.454753,0 0.719336,-0.338997 0.26665,-0.338997 0.26665,-0.921907 0,-0.584977 -0.26665,-0.923974 -0.264583,-0.338997 -0.719336,-0.338997 z m 0,-0.338997 q 0.649056,0 1.037662,0.436149 0.388607,0.434082 0.388607,1.165819 0,0.729671 -0.388607,1.16582 -0.388606,0.434081 -1.037662,0.434081 -0.651122,0 -1.041796,-0.434081 -0.388606,-0.434082 -0.388606,-1.16582 0,-0.731737 0.388606,-1.165819 0.390674,-0.436149 1.041796,-0.436149 z"
         id="path66835" />
      <path
         d="m 42.032569,84.501969 v 0.355533 q -0.16123,-0.08888 -0.324527,-0.132291 -0.161231,-0.04547 -0.326595,-0.04547 -0.370003,0 -0.574642,0.235644 -0.204638,0.233577 -0.204638,0.657324 0,0.423746 0.204638,0.65939 0.204639,0.233578 0.574642,0.233578 0.165364,0 0.326595,-0.04341 0.163297,-0.04547 0.324527,-0.134358 v 0.351399 q -0.159163,0.07441 -0.330729,0.111621 -0.169498,0.03721 -0.361734,0.03721 -0.522965,0 -0.830957,-0.328662 -0.307991,-0.328661 -0.307991,-0.886766 0,-0.566374 0.310058,-0.890901 0.312126,-0.324528 0.853694,-0.324528 0.1757,0 0.343132,0.03721 0.167431,0.03514 0.324527,0.107487 z"
         id="path66837" />
      <path
         d="m 43.070232,83.755762 v 0.657323 h 0.783414 v 0.295589 h -0.783414 v 1.25677 q 0,0.283187 0.07648,0.363802 0.07855,0.08062 0.316259,0.08062 h 0.390674 v 0.318327 h -0.390674 q -0.440283,0 -0.607714,-0.163298 -0.167432,-0.165364 -0.167432,-0.599446 v -1.25677 h -0.279052 v -0.295589 h 0.279052 v -0.657323 z"
         id="path66839" />
    </g>
    <g
       aria-label="Gate"
       transform="translate(0,168.49998)"
       id="text60017"
       style="font-size:4.23333px;line-height:1.25;-inkscape-font-specification:sans-serif;display:inline;fill:#f9f9f9;stroke-width:0.264583">
      <path
         d="m 35.544082,102.3504 v -0.82889 h -0.682128 v -0.34313 h 1.095539 v 1.32498 q -0.241845,0.17156 -0.5333,0.26045 -0.291455,0.0868 -0.622184,0.0868 -0.723469,0 -1.132746,-0.42167 -0.40721,-0.42375 -0.40721,-1.17823 0,-0.75654 0.40721,-1.17822 0.409277,-0.423745 1.132746,-0.423745 0.30179,0 0.572575,0.07441 0.272851,0.07441 0.502294,0.219108 v 0.444413 q -0.23151,-0.19637 -0.491959,-0.29558 -0.260449,-0.09922 -0.54777,-0.09922 -0.566373,0 -0.851627,0.316263 -0.283186,0.31626 -0.283186,0.94257 0,0.62425 0.283186,0.94051 0.285254,0.31626 0.851627,0.31626 0.221175,0 0.394808,-0.0372 0.173633,-0.0393 0.312125,-0.11989 z"
         id="path66842" />
      <path
         d="m 37.755832,101.62693 q -0.460954,0 -0.63872,0.10542 -0.177767,0.10542 -0.177767,0.35967 0,0.20257 0.132291,0.32246 0.134359,0.11782 0.363802,0.11782 0.31626,0 0.506429,-0.22324 0.192236,-0.22531 0.192236,-0.59738 v -0.0847 z m 0.758609,-0.1571 v 1.32085 h -0.380338 v -0.3514 q -0.130225,0.21084 -0.324528,0.31213 -0.194303,0.0992 -0.475423,0.0992 -0.355533,0 -0.566373,-0.19843 -0.208772,-0.20051 -0.208772,-0.53537 0,-0.39067 0.260449,-0.58911 0.262516,-0.19844 0.781347,-0.19844 h 0.5333 v -0.0372 q 0,-0.26251 -0.173633,-0.40514 -0.171565,-0.14469 -0.483691,-0.14469 -0.198437,0 -0.386539,0.0475 -0.188102,0.0475 -0.361735,0.14263 v -0.3514 q 0.208773,-0.0806 0.405143,-0.11989 0.19637,-0.0413 0.382405,-0.0413 0.502295,0 0.750342,0.26045 0.248046,0.26045 0.248046,0.78961 z"
         id="path66844" />
      <path
         d="m 39.674059,99.818254 v 0.657326 h 0.783414 v 0.29559 h -0.783414 v 1.25677 q 0,0.28318 0.07648,0.3638 0.07855,0.0806 0.31626,0.0806 h 0.390673 v 0.31833 H 40.0668 q -0.440283,0 -0.607715,-0.1633 -0.167431,-0.16536 -0.167431,-0.59944 v -1.25677 h -0.279053 v -0.29559 h 0.279053 v -0.657326 z"
         id="path66846" />
      <path
         d="m 42.93794,101.53804 v 0.18604 h -1.748729 q 0.02481,0.39274 0.235644,0.59945 0.212907,0.20463 0.591178,0.20463 0.219108,0 0.423747,-0.0537 0.206705,-0.0537 0.409277,-0.16123 v 0.35967 q -0.204639,0.0868 -0.419613,0.13229 -0.214973,0.0455 -0.436148,0.0455 -0.553971,0 -0.878499,-0.32246 -0.322461,-0.32246 -0.322461,-0.87229 0,-0.56844 0.305925,-0.90124 0.307991,-0.33486 0.828889,-0.33486 0.467155,0 0.737939,0.30179 0.272851,0.29972 0.272851,0.81648 z m -0.380338,-0.11162 q -0.0041,-0.31212 -0.1757,-0.49816 -0.169498,-0.18603 -0.450618,-0.18603 -0.318326,0 -0.510563,0.17983 -0.190169,0.17984 -0.219108,0.50643 z"
         id="path66848" />
    </g>
    <g
       aria-label="Retrig
"
       transform="translate(0,168.49998)"
       id="text60023"
       style="font-size:4.23333px;line-height:1.25;-inkscape-font-specification:sans-serif;display:inline;fill:#f9f9f9;stroke-width:0.264583">
      <path
         d="m 33.653759,117.40623 q 0.134358,0.0455 0.260449,0.19431 0.128157,0.14882 0.256314,0.40927 l 0.423747,0.84336 h -0.448551 l -0.394808,-0.79168 q -0.152962,-0.31006 -0.297656,-0.41134 -0.142627,-0.10129 -0.390673,-0.10129 h -0.454753 v 1.30431 h -0.417545 v -3.08611 h 0.942578 q 0.529166,0 0.789615,0.22117 0.260449,0.22118 0.260449,0.66766 0,0.29146 -0.136426,0.48369 -0.134358,0.19224 -0.39274,0.26665 z m -1.045931,-1.29604 v 1.09554 h 0.525033 q 0.30179,0 0.454752,-0.13849 0.155029,-0.14056 0.155029,-0.41135 0,-0.27078 -0.155029,-0.40721 -0.152962,-0.13849 -0.454752,-0.13849 z"
         id="path66851" />
      <path
         d="m 36.905237,117.60054 v 0.18603 h -1.748729 q 0.02481,0.39274 0.235644,0.59945 0.212907,0.20464 0.591178,0.20464 0.219108,0 0.423747,-0.0537 0.206705,-0.0537 0.409277,-0.16123 v 0.35967 q -0.204639,0.0868 -0.419613,0.13229 -0.214973,0.0455 -0.436148,0.0455 -0.553971,0 -0.878499,-0.32246 -0.322461,-0.32246 -0.322461,-0.8723 0,-0.56844 0.305925,-0.90124 0.307991,-0.33486 0.828889,-0.33486 0.467154,0 0.737939,0.30179 0.272851,0.29972 0.272851,0.81649 z m -0.380338,-0.11162 q -0.0041,-0.31213 -0.1757,-0.49816 -0.169499,-0.18604 -0.450618,-0.18604 -0.318327,0 -0.510563,0.17983 -0.190169,0.17984 -0.219108,0.50643 z"
         id="path66853" />
      <path
         d="m 37.905692,115.88075 v 0.65732 h 0.783414 v 0.29559 h -0.783414 v 1.25677 q 0,0.28319 0.07648,0.3638 0.07855,0.0806 0.316259,0.0806 h 0.390674 v 0.31832 h -0.390674 q -0.440282,0 -0.607714,-0.1633 -0.167431,-0.16536 -0.167431,-0.59944 v -1.25677 h -0.279053 v -0.29559 h 0.279053 v -0.65732 z"
         id="path66855" />
      <path
         d="m 40.530853,116.8936 q -0.06408,-0.0372 -0.14056,-0.0537 -0.07441,-0.0186 -0.165365,-0.0186 -0.32246,0 -0.496093,0.21084 -0.171565,0.20877 -0.171565,0.60151 v 1.21956 h -0.382406 v -2.3151 h 0.382406 v 0.35967 q 0.119889,-0.21084 0.312125,-0.31213 0.192236,-0.10335 0.467154,-0.10335 0.03928,0 0.08682,0.006 0.04754,0.004 0.10542,0.0145 z"
         id="path66857" />
      <path
         d="m 40.929794,116.53807 h 0.380338 v 2.3151 h -0.380338 z m 0,-0.90124 h 0.380338 v 0.48163 h -0.380338 z"
         id="path66859" />
      <path
         d="m 43.629369,117.66875 q 0,-0.41341 -0.171566,-0.64079 -0.169498,-0.22737 -0.477489,-0.22737 -0.305925,0 -0.47749,0.22737 -0.169499,0.22738 -0.169499,0.64079 0,0.41134 0.169499,0.63872 0.171565,0.22738 0.47749,0.22738 0.307991,0 0.477489,-0.22738 0.171566,-0.22738 0.171566,-0.63872 z m 0.380338,0.8971 q 0,0.59118 -0.262516,0.8785 -0.262516,0.28939 -0.804084,0.28939 -0.200505,0 -0.378272,-0.031 -0.177766,-0.0289 -0.345198,-0.091 v -0.37 q 0.167432,0.0909 0.330729,0.13436 0.163297,0.0434 0.332796,0.0434 0.374137,0 0.560172,-0.19637 0.186035,-0.19431 0.186035,-0.58912 v -0.1881 q -0.117822,0.20464 -0.30179,0.30593 -0.183968,0.10128 -0.440283,0.10128 -0.425813,0 -0.686262,-0.32453 -0.260449,-0.32452 -0.260449,-0.85989 0,-0.53743 0.260449,-0.86196 0.260449,-0.32453 0.686262,-0.32453 0.256315,0 0.440283,0.10129 0.183968,0.10128 0.30179,0.30592 v -0.3514 h 0.380338 z"
         id="path66861" />
    </g>
    <g
       aria-label="A"
       transform="translate(0,168.49998)"
       id="text60277"
       style="font-size:4.23333px;line-height:1.25;-inkscape-font-specification:sans-serif;display:inline;fill:#f9f9f9;stroke-width:0.264583">
      <path
         d="m 22.859996,67.880803 -0.566373,1.535822 h 1.134813 z m -0.235644,-0.411344 h 0.473356 l 1.176154,3.086114 h -0.434081 l -0.28112,-0.791683 h -1.391128 l -0.28112,0.791683 H 21.44613 Z"
         id="path66864" />
    </g>
    <g
       aria-label="B"
       transform="translate(0,168.49998)"
       id="text61411"
       style="font-size:4.23333px;line-height:1.25;-inkscape-font-specification:sans-serif;display:inline;fill:#f9f9f9;stroke-width:0.264583">
      <path
         d="m 37.48608,69.081762 v 1.130679 h 0.669726 q 0.336931,0 0.498161,-0.138492 0.163297,-0.14056 0.163297,-0.427881 0,-0.289388 -0.163297,-0.425813 -0.16123,-0.138493 -0.498161,-0.138493 z m 0,-1.269172 v 0.930175 h 0.61805 q 0.305924,0 0.454752,-0.113688 0.150895,-0.115755 0.150895,-0.3514 0,-0.233577 -0.150895,-0.349332 Q 38.410054,67.81259 38.10413,67.81259 Z m -0.417545,-0.343131 h 1.066601 q 0.47749,0 0.735872,0.198437 0.258382,0.198437 0.258382,0.564306 0,0.283187 -0.132292,0.450618 -0.132291,0.167432 -0.388606,0.208773 0.307991,0.06615 0.477489,0.276985 0.171566,0.208773 0.171566,0.522965 0,0.413411 -0.281119,0.63872 -0.28112,0.22531 -0.799951,0.22531 h -1.107942 z"
         id="path66867" />
    </g>
  </g>
  <g
     inkscape:groupmode="layer"
     id="layer2"
     inkscape:label="components"
     style="display:none">
    <circle
       style="display:inline;opacity:1;vector-effect:none;fill:#ff0000;fill-opacity:1;fill-rule:evenodd;stroke:none;stroke-width:1.13364;stroke-linecap:butt;stroke-linejoin:miter;stroke-miterlimit:4;stroke-dasharray:none;stroke-dashoffset:0;stroke-opacity:1;paint-order:normal"
       id="Shape"
       cx="22.859997"
       cy="35.300014"
       r="4.5345535"
       inkscape:label="Split" />
    <circle
       r="3.5674729"
       cy="94.258339"
       cx="7.6199989"
       id="circle4956"
       style="display:inline;opacity:1;vector-effect:none;fill:#00ff00;fill-opacity:1;fill-rule:evenodd;stroke:none;stroke-width:0.891868;stroke-linecap:butt;stroke-linejoin:miter;stroke-miterlimit:4;stroke-dasharray:none;stroke-dashoffset:0;stroke-opacity:1;paint-order:normal"
       inkscape:label="Gate" />
    <circle
       style="display:inline;opacity:1;vector-effect:none;fill:#0000ff;fill-opacity:1;fill-rule:evenodd;stroke:none;stroke-width:0.890544;stroke-linecap:butt;stroke-linejoin:miter;stroke-miterlimit:4;stroke-dasharray:none;stroke-dashoffset:0;stroke-opacity:1;paint-order:normal"
       id="circle4958"
       cx="22.859997"
       cy="110.32085"
       r="3.5621772"
       inkscape:label="Retrig_A" />
    <circle
       r="3.6186819"
       cy="78.195839"
       cx="7.6199989"
       id="circle18804"
       style="display:inline;opacity:1;vector-effect:none;fill:#00ff00;fill-opacity:1;fill-rule:evenodd;stroke:none;stroke-width:0.904671;stroke-linecap:butt;stroke-linejoin:miter;stroke-miterlimit:4;stroke-dasharray:none;stroke-dashoffset:0;stroke-opacity:1;paint-order:normal"
       inkscape:label="VOct" />
    <circle
       style="display:inline;opacity:1;vector-effect:none;fill:#ff0000;fill-opacity:1;fill-rule:evenodd;stroke:none;stroke-width:1.15205;stroke-linecap:butt;stroke-linejoin:miter;stroke-miterlimit:4;stroke-dasharray:none;stroke-dashoffset:0;stroke-opacity:1;paint-order:normal"
       id="circle1004"
       cx="22.859997"
       cy="19.237019"
       r="4.6081934"
       inkscape:label="Stack" />
    <circle
       r="3.1482081"
       cy="110.32085"
       cx="7.6199989"
       id="circle59597"
       style="display:inline;opacity:1;vector-effect:none;fill:#00ff00;fill-opacity:1;fill-rule:evenodd;stroke:none;stroke-width:0.787052;stroke-linecap:butt;stroke-linejoin:miter;stroke-miterlimit:4;stroke-dasharray:none;stroke-dashoffset:0;stroke-opacity:1;paint-order:normal"
       inkscape:label="Retrig" />
    <circle
       style="display:inline;opacity:1;vector-effect:none;fill:#ff0000;fill-opacity:1;fill-rule:evenodd;stroke:none;stroke-width:0.734114;stroke-linecap:butt;stroke-linejoin:miter;stroke-miterlimit:4;stroke-dasharray:none;stroke-dashoffset:0;stroke-opacity:1;paint-order:normal"
       id="circle59599"
       cx="22.859997"
       cy="51.362514"
       r="2.936456"
       inkscape:label="Switch" />
    <circle
       style="display:inline;opacity:1;vector-effect:none;fill:#0000ff;fill-opacity:1;fill-rule:evenodd;stroke:none;stroke-width:0.890544;stroke-linecap:butt;stroke-linejoin:miter;stroke-miterlimit:4;stroke-dasharray:none;stroke-dashoffset:0;stroke-opacity:1;paint-order:normal"
       id="circle59835"
       cx="22.859997"
       cy="94.258339"
       r="3.5621772"
       inkscape:label="Gate_A" />
    <circle
       style="display:inline;opacity:1;vector-effect:none;fill:#0000ff;fill-opacity:1;fill-rule:evenodd;stroke:none;stroke-width:0.890544;stroke-linecap:butt;stroke-linejoin:miter;stroke-miterlimit:4;stroke-dasharray:none;stroke-dashoffset:0;stroke-opacity:1;paint-order:normal"
       id="circle59837"
       cx="22.859997"
       cy="78.195839"
       r="3.5621772"
       inkscape:label="VOct_A" />
    <circle
       style="display:inline;opacity:1;vector-effect:none;fill:#0000ff;fill-opacity:1;fill-rule:evenodd;stroke:none;stroke-width:0.890544;stroke-linecap:butt;stroke-linejoin:miter;stroke-miterlimit:4;stroke-dasharray:none;stroke-dashoffset:0;stroke-opacity:1;paint-order:normal"
       id="circle59919"
       cx="38.099995"
       cy="110.32085"
       r="3.5621772"
       inkscape:label="Retrig_B" />
    <circle
       style="display:inline;opacity:1;vector-effect:none;fill:#0000ff;fill-opacity:1;fill-rule:evenodd;stroke:none;stroke-width:0.890544;stroke-linecap:butt;stroke-linejoin:miter;stroke-miterlimit:4;stroke-dasharray:none;stroke-dashoffset:0;stroke-opacity:1;paint-order:normal"
       id="circle59921"
       cx="38.099995"
       cy="94.258339"
       r="3.5621772"
       inkscape:label="Gate_B" />
    <circle
       style="display:inline;opacity:1;vector-effect:none;fill:#0000ff;fill-opacity:1;fill-rule:evenodd;stroke:none;stroke-width:0.890544;stroke-linecap:butt;stroke-linejoin:miter;stroke-miterlimit:4;stroke-dasharray:none;stroke-dashoffset:0;stroke-opacity:1;paint-order:normal"
       id="circle59923"
       cx="38.099995"
       cy="78.195839"
       r="3.5621772"
       inkscape:label="VOct_B" />
  </g>
</svg>
